General                          : ChattChitto RG - Movies [R2L]
==========
Complete name                    : Little White Lies 2010 720p BRRip H264 [ChattChitto RG]
Format                           : MPEG-4
Format profile                   : Base Media
Codec ID                         : isom
File size                        : 2.86 GiB
Duration                         : 2h 34mn
Overall bit rate                 : 2 656 Kbps
Encoded date                     : UTC 2011-04-06 16:04:44

Video
==========
ID                               : 1
Format                           : AVC
Format/Info                      : Advanced Video Codec
Format profile                   : High@L4.1
Format settings, CABAC           : Yes
Format settings, ReFrames        : 4 frames
Format settings, GOP             : M=1, N=25
Codec ID                         : avc1
Codec ID/Info                    : Advanced Video Coding
Duration                         : 2h 34mn
Bit rate mode                    : Variable
Bit rate                         : 2 300 Kbps
Maximum bit rate                 : 19.1 Mbps
Width                            : 1 280 pixels
Height                           : 544 pixels
Display aspect ratio             : 2.35:1
Frame rate mode                  : Constant
Frame rate                       : 24.000 fps
Color space                      : YUV
Chroma subsampling               : 4:2:0
Bit depth                        : 8 bits
Scan type                        : Progressive
Bits/(Pixel*Frame)               : 0.138
Stream size                      : 2.48 GiB (87%)
Writing library                  : x264 core 114 r1913 5fd3dce
Encoded date                     : UTC 2011-04-06 03:34:26

Audio
==========
ID                               : 2
Format                           : AAC
Format/Info                      : Advanced Audio Codec
Format profile                   : LC
Codec ID                         : 40
Duration                         : 2h 34mn
Bit rate mode                    : Variable
Bit rate                         : 352.8 Kbps
Maximum bit rate                 : 508 Kbps
Channel(s)                       : 6 channels
Channel positions                : Front: L C R, Side: L R, LFE
Sampling rate                    : 48.0 KHz
Compression mode                 : Lossy
Stream size                      : 390 MiB (13%)
Encoded date                     : UTC 2011-04-06 16:05:24

Subtitles                        : English


----------------------------------------------------
IMDB Link: http://www.imdb.com/title/tt1440232/
----------------------------------------------------



Screen Shots:
==============    
http://chattchitto.net/chattchittorg/movies/brrip/2011/little_white_lies/1.png 
http://chattchitto.net/chattchittorg/movies/brrip/2011/little_white_lies/2.png 
http://chattchitto.net/chattchittorg/movies/brrip/2011/little_white_lies/3.png 
http://chattchitto.net/chattchittorg/movies/brrip/2011/little_white_lies/4.png 
http://chattchitto.net/chattchittorg/movies/brrip/2011/little_white_lies/5.png 
http://chattchitto.net/chattchittorg/movies/brrip/2011/little_white_lies/6.png 
http://chattchitto.net/chattchittorg/movies/brrip/2011/little_white_lies/7.png



ScreenShots Comparison:
=========================  
http://screenshotcomparison.com/comparison/41701



Plot:
======
Every year, Max, a successful restaurant owner, and Véro, his eco-friendly wife invite a merry group of friends to their beautiful beach house to celebrate Antoine's birthday and kick-start the vacation. But, this year, before they all leave Paris, their buddy Ludo is hurt in a serious accident, which sets off a dramatic chain of reactions and emotional responses...



Release Info:
==============
original name .... : Little White Lies 2010 720p BRRip H264 [ChattChitto RG]
ripper.............: CHD
encoder............: Recalled2Life (R2L)
video codec........: H264/.MP4
video bitrate......: 2300
audio codec........: AAC-LC
aspect ratio.......: 2.35:1
resolution.........: 1280 x 544
genre..............: Comedy | Drama
runtime............: 2h 34mn
language...........: French
rating.............: None
subtitles..........: English
sample.............: Yes
2ch Audio..........: 2ch Audio for XBox Viewers
Compatibility .....: XBox | PS3 | WD Live



Source:
========
Little.White.Lies.2010.BluRay.720p.DTS.x264-CHD  THANKS!



Notes:
=======
ChattChitto RG Encourages Burning this Film with ConvertXtoDVD and Playing with VLC media player.
XBox 360 | PS3 | WD Live - Compatible 
Enhanced for your viewing pleasure ;)